<svg width="47" height="46" viewBox="0 0 47 46" fill="none" xmlns="http://www.w3.org/2000/svg">
<path d="M43.9998 20H10.4898L25.1298 5.35999C26.2998 4.18999 26.2998 2.26999 25.1298 1.09999C24.8522 0.821877 24.5226 0.601234 24.1596 0.45069C23.7967 0.300145 23.4077 0.222656 23.0148 0.222656C22.6219 0.222656 22.2328 0.300145 21.8699 0.45069C21.507 0.601234 21.1773 0.821877 20.8998 1.09999L1.12977 20.87C0.851663 21.1475 0.631021 21.4772 0.480476 21.8401C0.329932 22.203 0.252441 22.5921 0.252441 22.985C0.252441 23.3779 0.329932 23.7669 0.480476 24.1299C0.631021 24.4928 0.851663 24.8224 1.12977 25.1L20.8998 44.87C21.1775 45.1477 21.5073 45.368 21.8701 45.5184C22.233 45.6687 22.622 45.746 23.0148 45.746C23.4076 45.746 23.7965 45.6687 24.1594 45.5184C24.5223 45.368 24.852 45.1477 25.1298 44.87C25.4075 44.5922 25.6278 44.2625 25.7782 43.8996C25.9285 43.5367 26.0058 43.1478 26.0058 42.755C26.0058 42.3622 25.9285 41.9732 25.7782 41.6104C25.6278 41.2475 25.4075 40.9177 25.1298 40.64L10.4898 26H43.9998C45.6498 26 46.9998 24.65 46.9998 23C46.9998 21.35 45.6498 20 43.9998 20Z" fill="#009951"/>
</svg>
