<svg width="27" height="33" viewBox="0 0 27 33" fill="none" xmlns="http://www.w3.org/2000/svg">
<path d="M13.5 0.822998C13.1381 0.822893 12.7803 0.89977 12.4503 1.04852C12.1204 1.19728 11.8259 1.41451 11.5863 1.6858C11.3467 1.95708 11.1676 2.27622 11.0608 2.62203C10.954 2.96784 10.922 3.33241 10.9669 3.69154C8.7708 4.25408 6.82444 5.5316 5.43474 7.32267C4.04503 9.11374 3.29104 11.3164 3.29167 13.5834V23.7917H1.83333C1.44656 23.7917 1.07563 23.9454 0.802136 24.2189C0.528645 24.4924 0.375 24.8633 0.375 25.2501C0.375 25.6369 0.528645 26.0078 0.802136 26.2813C1.07563 26.5548 1.44656 26.7084 1.83333 26.7084H25.1667C25.5534 26.7084 25.9244 26.5548 26.1979 26.2813C26.4714 26.0078 26.625 25.6369 26.625 25.2501C26.625 24.8633 26.4714 24.4924 26.1979 24.2189C25.9244 23.9454 25.5534 23.7917 25.1667 23.7917H23.7083V13.5834C23.709 11.3164 22.955 9.11374 21.5653 7.32267C20.1756 5.5316 18.2292 4.25408 16.0331 3.69154C16.0448 3.58848 16.0511 3.483 16.0521 3.37508C16.0521 2.69823 15.7832 2.04909 15.3046 1.57049C14.826 1.09188 14.1769 0.822998 13.5 0.822998ZM13.5 32.5417C12.3397 32.5417 11.2269 32.0808 10.4064 31.2603C9.58594 30.4399 9.125 29.3271 9.125 28.1667H17.875C17.875 29.3271 17.4141 30.4399 16.5936 31.2603C15.7731 32.0808 14.6603 32.5417 13.5 32.5417Z" fill="white"/>
</svg>
