<svg width="350" height="350" viewBox="0 0 350 350" fill="none" xmlns="http://www.w3.org/2000/svg">
<path fill-rule="evenodd" clip-rule="evenodd" d="M121.408 108.248L115.668 126H98.0005C88.7179 126 79.8155 129.688 73.2518 136.251C66.688 142.815 63.0005 151.717 63.0005 161V245C63.0005 249.596 63.9058 254.148 65.6647 258.394C67.4236 262.64 70.0017 266.499 73.2518 269.749C76.5018 272.999 80.3602 275.577 84.6066 277.336C88.853 279.095 93.4042 280 98.0005 280H252.001C256.597 280 261.148 279.095 265.394 277.336C269.641 275.577 273.499 272.999 276.749 269.749C279.999 266.499 282.577 262.64 284.336 258.394C286.095 254.148 287.001 249.596 287.001 245V161C287.001 151.717 283.313 142.815 276.749 136.251C270.185 129.688 261.283 126 252.001 126H234.319L228.592 108.248C226.318 101.201 221.867 95.0575 215.879 90.7004C209.892 86.3433 202.677 83.9974 195.273 84H154.714C147.31 83.9974 140.095 86.3433 134.108 90.7004C128.12 95.0575 123.669 101.201 121.394 108.248M98.0005 140H125.86L134.723 112.56C136.085 108.33 138.755 104.641 142.348 102.025C145.94 99.4084 150.27 97.9992 154.714 98H195.287C199.728 98.0022 204.055 99.4127 207.645 102.029C211.235 104.645 213.902 108.332 215.265 112.56L224.127 140H252.001C257.57 140 262.911 142.212 266.85 146.151C270.788 150.089 273.001 155.43 273.001 161V245C273.001 250.57 270.788 255.911 266.85 259.849C262.911 263.788 257.57 266 252.001 266H98.0005C92.4309 266 87.0895 263.788 83.1512 259.849C79.213 255.911 77.0005 250.57 77.0005 245V161C77.0005 155.43 79.213 150.089 83.1512 146.151C87.0895 142.212 92.4309 140 98.0005 140Z" fill="#058447"/>
<path fill-rule="evenodd" clip-rule="evenodd" d="M133 196C133 207.139 137.425 217.822 145.302 225.698C153.178 233.575 163.861 238 175 238C186.139 238 196.822 233.575 204.698 225.698C212.575 217.822 217 207.139 217 196C217 184.861 212.575 174.178 204.698 166.302C196.822 158.425 186.139 154 175 154C163.861 154 153.178 158.425 145.302 166.302C137.425 174.178 133 184.861 133 196ZM203 196C203 203.426 200.05 210.548 194.799 215.799C189.548 221.05 182.426 224 175 224C167.574 224 160.452 221.05 155.201 215.799C149.95 210.548 147 203.426 147 196C147 188.574 149.95 181.452 155.201 176.201C160.452 170.95 167.574 168 175 168C182.426 168 189.548 170.95 194.799 176.201C200.05 181.452 203 188.574 203 196Z" fill="#058447"/>
<path fill-rule="evenodd" clip-rule="evenodd" d="M175 336C263.914 336 336 263.914 336 175C336 86.086 263.914 14 175 14C86.086 14 14 86.086 14 175C14 263.914 86.086 336 175 336ZM175 350C271.656 350 350 271.656 350 175C350 78.344 271.656 0 175 0C78.344 0 0 78.344 0 175C0 271.656 78.344 350 175 350Z" fill="#058447"/>
</svg>
