<svg width="31" height="30" viewBox="0 0 31 30" fill="none" xmlns="http://www.w3.org/2000/svg">
<path fill-rule="evenodd" clip-rule="evenodd" d="M5.29163 0.833374C4.1313 0.833374 3.01851 1.29431 2.19803 2.11478C1.37756 2.93525 0.916626 4.04805 0.916626 5.20837V6.66671H30.0833V5.20837C30.0833 4.04805 29.6224 2.93525 28.8019 2.11478C27.9814 1.29431 26.8686 0.833374 25.7083 0.833374H5.29163ZM30.0833 9.58337H0.916626V19.7917C0.916626 20.952 1.37756 22.0648 2.19803 22.8853C3.01851 23.7058 4.1313 24.1667 5.29163 24.1667H25.7083C26.8686 24.1667 27.9814 23.7058 28.8019 22.8853C29.6224 22.0648 30.0833 20.952 30.0833 19.7917V9.58337ZM9.66663 16.875C9.66663 16.4883 9.82027 16.1173 10.0938 15.8438C10.3673 15.5704 10.7382 15.4167 11.125 15.4167H17.562L17.3856 15.2402C17.1119 14.9668 16.9581 14.5958 16.958 14.209C16.9579 13.8221 17.1114 13.4511 17.3849 13.1774C17.6583 12.9038 18.0293 12.75 18.4161 12.7498C18.803 12.7497 19.174 12.9033 19.4477 13.1767L22.1135 15.844C22.3869 16.1175 22.5405 16.4883 22.5405 16.875C22.5405 17.2617 22.3869 17.6326 22.1135 17.9061L19.4477 20.5719C19.3131 20.7112 19.1522 20.8223 18.9743 20.8987C18.7964 20.9752 18.605 21.0154 18.4114 21.0171C18.2177 21.0188 18.0257 20.9819 17.8465 20.9085C17.6673 20.8352 17.5044 20.7269 17.3675 20.59C17.2306 20.4531 17.1223 20.2902 17.049 20.111C16.9756 19.9318 16.9387 19.7398 16.9404 19.5461C16.9421 19.3525 16.9823 19.1611 17.0588 18.9832C17.1352 18.8053 17.2463 18.6444 17.3856 18.5098L17.562 18.3334H11.125C10.7382 18.3334 10.3673 18.1797 10.0938 17.9062C9.82027 17.6327 9.66663 17.2618 9.66663 16.875Z" fill="#ECE8E8"/>
</svg>
