<svg width="65" height="52" viewBox="0 0 65 52" fill="none" xmlns="http://www.w3.org/2000/svg">
<path d="M58.5 0H6.5C2.925 0 0.0325 2.925 0.0325 6.5L0 45.5C0 49.075 2.925 52 6.5 52H58.5C62.075 52 65 49.075 65 45.5V6.5C65 2.925 62.075 0 58.5 0ZM57.2 13.8125L34.2225 28.1775C33.1825 28.8275 31.8175 28.8275 30.7775 28.1775L7.8 13.8125C7.47411 13.6296 7.18874 13.3824 6.96114 13.086C6.73354 12.7896 6.56845 12.45 6.47587 12.088C6.38329 11.7259 6.36513 11.3488 6.42251 10.9795C6.47988 10.6102 6.61159 10.2564 6.80967 9.93948C7.00774 9.62256 7.26805 9.34913 7.57486 9.13573C7.88167 8.92234 8.22858 8.77341 8.59461 8.69797C8.96064 8.62253 9.33817 8.62214 9.70435 8.69683C10.0705 8.77152 10.4178 8.91973 10.725 9.1325L32.5 22.75L54.275 9.1325C54.5822 8.91973 54.9295 8.77152 55.2956 8.69683C55.6618 8.62214 56.0394 8.62253 56.4054 8.69797C56.7714 8.77341 57.1183 8.92234 57.4251 9.13573C57.7319 9.34913 57.9923 9.62256 58.1903 9.93948C58.3884 10.2564 58.5201 10.6102 58.5775 10.9795C58.6349 11.3488 58.6167 11.7259 58.5241 12.088C58.4315 12.45 58.2665 12.7896 58.0389 13.086C57.8113 13.3824 57.5259 13.6296 57.2 13.8125Z" fill="#EFFFF7"/>
</svg>
