<svg width="17" height="19" viewBox="0 0 17 19" fill="none" xmlns="http://www.w3.org/2000/svg">
<path d="M5.37533 2.20844C5.09906 2.20844 4.83411 2.31819 4.63876 2.51354C4.44341 2.70889 4.33366 2.97384 4.33366 3.25011C4.33366 3.52638 4.44341 3.79133 4.63876 3.98668C4.83411 4.18203 5.09906 4.29178 5.37533 4.29178C5.65159 4.29178 5.91654 4.18203 6.11189 3.98668C6.30725 3.79133 6.41699 3.52638 6.41699 3.25011C6.41699 2.97384 6.30725 2.70889 6.11189 2.51354C5.91654 2.31819 5.65159 2.20844 5.37533 2.20844ZM2.42741 2.20844C2.64262 1.59851 3.04172 1.07035 3.5697 0.696767C4.09768 0.323179 4.72854 0.122559 5.37533 0.122559C6.02211 0.122559 6.65297 0.323179 7.18095 0.696767C7.70893 1.07035 8.10803 1.59851 8.32324 2.20844H15.792C16.0683 2.20844 16.3332 2.31819 16.5286 2.51354C16.7239 2.70889 16.8337 2.97384 16.8337 3.25011C16.8337 3.52638 16.7239 3.79133 16.5286 3.98668C16.3332 4.18203 16.0683 4.29178 15.792 4.29178H8.32324C8.10803 4.90171 7.70893 5.42987 7.18095 5.80346C6.65297 6.17704 6.02211 6.37766 5.37533 6.37766C4.72854 6.37766 4.09768 6.17704 3.5697 5.80346C3.04172 5.42987 2.64262 4.90171 2.42741 4.29178H1.20866C0.932392 4.29178 0.66744 4.18203 0.472089 3.98668C0.276739 3.79133 0.166992 3.52638 0.166992 3.25011C0.166992 2.97384 0.276739 2.70889 0.472089 2.51354C0.66744 2.31819 0.932392 2.20844 1.20866 2.20844H2.42741ZM11.6253 8.45844C11.3491 8.45844 11.0841 8.56819 10.8888 8.76354C10.6934 8.95889 10.5837 9.22384 10.5837 9.50011C10.5837 9.77638 10.6934 10.0413 10.8888 10.2367C11.0841 10.432 11.3491 10.5418 11.6253 10.5418C11.9016 10.5418 12.1665 10.432 12.3619 10.2367C12.5572 10.0413 12.667 9.77638 12.667 9.50011C12.667 9.22384 12.5572 8.95889 12.3619 8.76354C12.1665 8.56819 11.9016 8.45844 11.6253 8.45844ZM8.67741 8.45844C8.89262 7.84851 9.29172 7.32035 9.8197 6.94677C10.3477 6.57318 10.9785 6.37256 11.6253 6.37256C12.2721 6.37256 12.903 6.57318 13.431 6.94677C13.9589 7.32035 14.358 7.84851 14.5732 8.45844H15.792C16.0683 8.45844 16.3332 8.56819 16.5286 8.76354C16.7239 8.95889 16.8337 9.22384 16.8337 9.50011C16.8337 9.77638 16.7239 10.0413 16.5286 10.2367C16.3332 10.432 16.0683 10.5418 15.792 10.5418H14.5732C14.358 11.1517 13.9589 11.6799 13.431 12.0535C12.903 12.427 12.2721 12.6277 11.6253 12.6277C10.9785 12.6277 10.3477 12.427 9.8197 12.0535C9.29172 11.6799 8.89262 11.1517 8.67741 10.5418H1.20866C0.932392 10.5418 0.66744 10.432 0.472089 10.2367C0.276739 10.0413 0.166992 9.77638 0.166992 9.50011C0.166992 9.22384 0.276739 8.95889 0.472089 8.76354C0.66744 8.56819 0.932392 8.45844 1.20866 8.45844H8.67741ZM5.37533 14.7084C5.09906 14.7084 4.83411 14.8182 4.63876 15.0135C4.44341 15.2089 4.33366 15.4738 4.33366 15.7501C4.33366 16.0264 4.44341 16.2913 4.63876 16.4867C4.83411 16.682 5.09906 16.7918 5.37533 16.7918C5.65159 16.7918 5.91654 16.682 6.11189 16.4867C6.30725 16.2913 6.41699 16.0264 6.41699 15.7501C6.41699 15.4738 6.30725 15.2089 6.11189 15.0135C5.91654 14.8182 5.65159 14.7084 5.37533 14.7084ZM2.42741 14.7084C2.64262 14.0985 3.04172 13.5704 3.5697 13.1968C4.09768 12.8232 4.72854 12.6226 5.37533 12.6226C6.02211 12.6226 6.65297 12.8232 7.18095 13.1968C7.70893 13.5704 8.10803 14.0985 8.32324 14.7084H15.792C16.0683 14.7084 16.3332 14.8182 16.5286 15.0135C16.7239 15.2089 16.8337 15.4738 16.8337 15.7501C16.8337 16.0264 16.7239 16.2913 16.5286 16.4867C16.3332 16.682 16.0683 16.7918 15.792 16.7918H8.32324C8.10803 17.4017 7.70893 17.9299 7.18095 18.3035C6.65297 18.677 6.02211 18.8777 5.37533 18.8777C4.72854 18.8777 4.09768 18.677 3.5697 18.3035C3.04172 17.9299 2.64262 17.4017 2.42741 16.7918H1.20866C0.932392 16.7918 0.66744 16.682 0.472089 16.4867C0.276739 16.2913 0.166992 16.0264 0.166992 15.7501C0.166992 15.4738 0.276739 15.2089 0.472089 15.0135C0.66744 14.8182 0.932392 14.7084 1.20866 14.7084H2.42741Z" fill="#EEFFF7"/>
</svg>
