<svg width="31" height="31" viewBox="0 0 31 31" fill="none" xmlns="http://www.w3.org/2000/svg">
<path d="M15.427 24.25C15.9375 24.25 16.3691 24.0735 16.722 23.7206C17.075 23.3677 17.2509 22.9365 17.25 22.427C17.249 21.9176 17.073 21.4859 16.722 21.132C16.3711 20.7782 15.9394 20.6022 15.427 20.6041C14.9147 20.6061 14.4835 20.7825 14.1335 21.1335C13.7835 21.4845 13.607 21.9157 13.6041 22.427C13.6012 22.9384 13.7777 23.3701 14.1335 23.722C14.4893 24.074 14.9205 24.25 15.427 24.25ZM14.1145 18.6354H16.8125C16.8125 17.8333 16.9039 17.2014 17.0866 16.7395C17.2694 16.2777 17.7857 15.6458 18.6354 14.8437C19.2673 14.2118 19.7656 13.61 20.1302 13.0383C20.4948 12.4666 20.677 11.7802 20.677 10.9791C20.677 9.61802 20.1788 8.57288 19.1823 7.84372C18.1857 7.11455 17.0069 6.74997 15.6458 6.74997C14.2604 6.74997 13.1365 7.11455 12.2741 7.84372C11.4118 8.57288 10.81 9.44788 10.4687 10.4687L12.875 11.4166C12.9965 10.9791 13.2702 10.5052 13.696 9.99476C14.1218 9.48434 14.7718 9.22913 15.6458 9.22913C16.4236 9.22913 17.0069 9.44205 17.3958 9.86788C17.7847 10.2937 17.9791 10.7614 17.9791 11.2708C17.9791 11.7569 17.8333 12.2129 17.5416 12.6387C17.25 13.0645 16.8854 13.4593 16.4479 13.8229C15.3784 14.7708 14.7222 15.4878 14.4791 15.9739C14.2361 16.46 14.1145 17.3472 14.1145 18.6354ZM15.5 30.0833C13.4826 30.0833 11.5868 29.7007 9.81246 28.9356C8.03816 28.1705 6.49475 27.1311 5.18225 25.8177C3.86975 24.5042 2.83093 22.9608 2.06579 21.1875C1.30066 19.4141 0.9176 17.5183 0.916628 15.5C0.915656 13.4816 1.29871 11.5858 2.06579 9.81247C2.83288 8.03913 3.8717 6.49573 5.18225 5.18226C6.49281 3.86879 8.03621 2.82997 9.81246 2.0658C11.5887 1.30163 13.4845 0.918578 15.5 0.916633C17.5154 0.914689 19.4112 1.29774 21.1875 2.0658C22.9637 2.83386 24.5071 3.87267 25.8177 5.18226C27.1282 6.49184 28.1675 8.03524 28.9356 9.81247C29.7036 11.5897 30.0862 13.4855 30.0833 15.5C30.0804 17.5144 29.6973 19.4102 28.9341 21.1875C28.1709 22.9647 27.1321 24.5081 25.8177 25.8177C24.5032 27.1273 22.9598 28.1666 21.1875 28.9356C19.4151 29.7046 17.5193 30.0872 15.5 30.0833Z" fill="#ECE8E8"/>
</svg>
