<svg
              width="40"
              height="40"
              viewBox="0 0 25 27"
              fill="none"
              xmlns="http://www.w3.org/2000/svg"
              className="max-w-6"
            >
              <path
                d="M23.3333 23.6078V10.5763C23.3333 10.3383 23.2806 10.1035 23.1794 9.89063C23.0781 9.67775 22.9311 9.49257 22.75 9.34976L12.5417 1.30089C12.2892 1.10185 11.9822 0.994263 11.6667 0.994263C11.3511 0.994263 11.0441 1.10185 10.7917 1.30089L0.583333 9.34976C0.402214 9.49257 0.255209 9.67775 0.15396 9.89063C0.0527114 10.1035 0 10.3383 0 10.5763V23.6078C0 24.0144 0.153646 24.4043 0.427136 24.6919C0.700627 24.9794 1.07156 25.1409 1.45833 25.1409H7.29167C7.67844 25.1409 8.04937 24.9794 8.32286 24.6919C8.59635 24.4043 8.75 24.0144 8.75 23.6078V19.0084C8.75 18.6018 8.90365 18.2119 9.17714 17.9243C9.45063 17.6368 9.82156 17.4753 10.2083 17.4753H13.125C13.5118 17.4753 13.8827 17.6368 14.1562 17.9243C14.4297 18.2119 14.5833 18.6018 14.5833 19.0084V23.6078C14.5833 24.0144 14.737 24.4043 15.0105 24.6919C15.284 24.9794 15.6549 25.1409 16.0417 25.1409H21.875C22.2618 25.1409 22.6327 24.9794 22.9062 24.6919C23.1797 24.4043 23.3333 24.0144 23.3333 23.6078Z"
                fill="#149659"
                strokeWidth="2"
                strokeLinecap="round"
                strokeLinejoin="round"
              />
            </svg>