<svg width="120" height="118" viewBox="0 0 120 118" fill="none" xmlns="http://www.w3.org/2000/svg">
<path d="M60 114.312C91.066 114.312 116.25 89.5482 116.25 59C116.25 28.4517 91.066 3.6875 60 3.6875C28.934 3.6875 3.75 28.4517 3.75 59C3.75 89.5482 28.934 114.312 60 114.312Z" fill="#F42F4C"/>
<path d="M93.1875 63.2406C90.75 61.2125 86.4375 61.5812 83.4375 61.7656C86.8125 60.1063 92.0625 56.7875 95.625 59.7375C93 56.2344 87.1875 57.3406 83.625 58.0781C86.625 55.8656 91.3125 51.9937 95.25 54.2062C92.0625 51.0719 86.4375 53.1 83.0625 54.575C85.6875 51.9938 89.625 47.3844 93.9375 48.8594C90.375 46.2781 85.125 49.0438 81.9375 51.0719C84 48.1219 87.375 42.9594 91.875 43.8812C87.9375 41.8531 83.25 45.5406 80.4375 47.7531C82.125 44.4344 84.375 38.9031 89.0625 39.0875C84.75 37.7969 80.8125 42.0375 78.375 44.8031C79.5 41.3 80.8125 35.4 85.5 34.8469C81.1875 34.1094 77.8125 38.9031 75.9375 42.0375C76.5 38.35 76.875 32.2656 81.375 31.1594C76.875 31.1594 74.4375 36.5063 72.9375 39.825C72.9375 36.1375 72.375 30.0531 76.6875 28.2094C72.375 28.9469 70.6875 34.4781 69.75 37.9813C69.1875 34.2938 67.6875 28.3938 71.4375 25.9969C67.125 27.2875 66.5625 33.1875 66.1875 36.6906C65.0625 33.1875 62.625 27.6563 66 24.5219C62.0625 26.55 62.25 32.2656 62.4375 35.9531C60.75 32.6344 57.375 27.4719 60.375 23.9688C56.8125 26.55 57.9375 32.2656 58.6875 35.7687C56.4375 32.8187 52.5 28.2094 54.75 24.3375C51.5625 27.4719 53.625 32.8188 55.125 36.3219C52.5 33.7406 47.8125 29.8687 49.3125 25.6281C46.6875 29.1312 49.5 34.2937 51.5625 37.4281C48.5625 35.4 43.3125 32.0813 44.25 27.6562C42.1875 31.5281 45.9375 36.1375 48.375 38.9031C45 37.2438 39.375 35.0312 39.5625 30.4219C38.25 34.4781 42.5625 38.5344 45.375 40.9313C41.8125 39.825 35.8125 38.5344 35.25 33.925C34.5 38.1656 39.375 41.4844 42.5625 43.3281C38.8125 42.775 32.625 42.4062 31.5 37.9813C31.5 42.4062 36.9375 44.8031 40.3125 46.2781C36.5625 46.2781 30.375 46.8313 28.5 42.5906C29.25 46.8313 34.875 48.4906 38.4375 49.4125C34.6875 49.9656 28.6875 51.4406 26.25 47.7531C27.5625 51.9937 33.5625 52.5469 37.125 52.9156C33.5625 54.0219 27.9375 56.4187 24.75 53.1C26.8125 56.9719 32.625 56.7875 36.375 56.6031C33 58.2625 27.75 61.5812 24.1875 58.6312C26.8125 62.1344 32.625 61.0281 36.1875 60.2906C33.1875 62.5031 28.5 66.375 24.5625 64.1625C27.75 67.2969 33.1875 65.2687 36.75 63.7937C34.125 66.375 30.1875 70.9844 25.875 69.5094C29.4375 72.0906 34.6875 69.325 37.875 67.2969C35.8125 70.2469 32.4375 75.4094 27.9375 74.4875C31.875 76.5156 36.5625 72.8281 39.375 70.4313C37.6875 73.75 35.4375 79.2813 30.75 79.0969C35.0625 80.3875 39 76.1469 41.4375 73.3812C40.3125 76.8844 39 82.7844 34.3125 83.3375C38.625 84.075 42 79.0969 43.875 76.1469C43.3125 79.8344 42.9375 85.9188 38.4375 87.025C42.9375 87.025 45.375 81.6781 46.875 78.3594C46.875 82.0469 47.4375 88.1312 43.125 89.975C47.4375 89.2375 49.125 83.7062 50.0625 80.2031C50.625 83.8906 52.125 89.7906 48.375 92.1875C52.6875 90.8969 53.25 84.9969 53.625 81.4938C54.75 84.9969 57.1875 90.5281 53.8125 93.6625C57.75 91.6344 57.5625 85.9187 57.375 82.2312C59.0625 85.55 62.4375 90.7125 59.4375 94.2156C63 91.6344 61.875 85.9188 61.125 82.4156C63.375 85.3656 67.3125 89.975 65.0625 93.8469C68.25 90.7125 66.1875 85.3656 64.6875 81.8625C67.3125 84.4438 72 88.3156 70.5 92.5563C73.125 89.0531 70.3125 83.8906 68.25 80.7562C71.25 82.7844 76.5 86.1031 75.5625 90.5281C77.625 86.6562 73.875 82.0469 71.625 79.2812C75 80.9406 80.625 83.1531 80.4375 87.7625C81.75 83.5219 77.4375 79.65 74.625 77.2531C78.1875 78.3594 84.1875 79.65 84.75 84.2594C85.5 79.8344 80.4375 76.7 77.4375 74.8562C81.1875 75.4094 87.1875 75.7781 88.5 80.2031C88.5 75.7781 83.0625 73.3812 79.6875 71.9062C83.4375 71.9062 89.625 71.3531 91.5 75.5938C90.75 71.1688 85.125 69.6937 81.5625 68.7719C85.3125 68.2188 91.3125 66.7438 93.75 70.4313C92.4375 66.375 86.4375 65.4531 82.875 65.2688C86.4375 63.9781 92.0625 61.7656 95.25 65.0844C94.6875 64.3469 93.9375 63.7937 93.1875 63.2406ZM60 81.125C51.5625 81.125 43.6875 76.3313 39.9375 68.9563C36 61.5813 36.9375 52.3625 42 45.5406C47.0625 38.9031 55.6875 35.5844 64.125 37.0594C72.375 38.5344 79.125 44.6187 81.5625 52.3625C85.875 66.5594 74.8125 81.125 60 81.125Z" fill="#FFE62E"/>
<path d="M46.5 46.0938C43.125 49.4125 41.25 54.0219 41.25 59C41.25 62.6875 42.375 66.1906 44.25 69.1406C45.75 62.3188 48.9375 56.05 53.0625 50.8875C51.1875 49.0438 48.9375 47.3844 46.5 46.0938ZM58.6875 44.9875C57.1875 43.6969 55.5 42.5906 53.8125 41.4844C53.0625 41.6688 52.3125 42.0375 51.5625 42.4062C53.4375 43.5125 55.3125 44.9875 57.1875 46.2781C57.5625 46.0938 58.125 45.5406 58.6875 44.9875ZM55.875 47.7531C54 46.0937 51.9375 44.8031 49.6875 43.5125C49.125 43.8813 48.5625 44.4344 48 44.8031C50.25 46.0937 52.5 47.5687 54.375 49.4125C54.75 48.8594 55.3125 48.3062 55.875 47.7531ZM54.5625 51.9938C50.25 57.525 47.25 63.9781 45.75 70.9844C46.6875 71.9062 47.625 72.8281 48.75 73.75C49.5 66.375 52.125 59.5531 56.25 53.8375C55.6875 53.1 55.125 52.5469 54.5625 51.9938ZM63.75 53.8375C67.875 59.5531 70.6875 66.375 71.25 73.75C72.375 73.0125 73.3125 72.0906 74.25 70.9844C72.9375 63.9781 69.75 57.525 65.4375 51.9938C64.875 52.5469 64.3125 53.1 63.75 53.8375ZM58.5 53.8375C59.0625 54.575 59.625 55.1281 60 55.8656C60.5625 55.1281 60.9375 54.575 61.5 53.8375C60.9375 53.2844 60.5625 52.5469 60 51.9938C59.4375 52.5469 58.875 53.1 58.5 53.8375ZM63.9375 40.9313C62.625 40.7469 61.3125 40.5625 60 40.5625C58.6875 40.5625 57.375 40.7469 56.0625 40.9313C57.375 41.8531 58.875 42.775 60 43.8812C61.3125 42.775 62.625 41.8531 63.9375 40.9313Z" fill="#FFE62E"/>
<path d="M59.0625 57.525L57.375 55.3125C53.4375 61.0281 50.8125 67.6656 50.25 74.8562L53.625 76.5156V75.9625C53.8125 69.1406 55.6875 62.8719 59.0625 57.525ZM60 49.2281L61.6875 47.5687C61.125 47.0156 60.5625 46.4625 60 46.0938C59.4375 46.6469 58.875 47.0156 58.3125 47.5687L60 49.2281ZM62.8125 52.3625C63.375 51.8094 63.9375 51.0719 64.5 50.5187C63.9375 49.9656 63.5625 49.4125 63 48.8594L61.3125 50.5187C61.6875 51.2562 62.25 51.8094 62.8125 52.3625ZM57.1875 49.0438C56.625 49.5969 56.25 50.15 55.6875 50.7031C56.25 51.2562 56.8125 51.8094 57.375 52.5469C57.9375 51.9938 58.3125 51.2562 58.875 50.7031C58.3125 49.9656 57.75 49.4125 57.1875 49.0438Z" fill="#FFE62E"/>
<path d="M60 59.1843C57.1875 64.1624 55.5 69.8781 55.5 75.7781V76.8843C57 77.2531 58.5 77.4375 60 77.4375C62.25 77.4375 63 77.2531 64.5 76.8843V75.7781C64.5 69.6937 62.8125 63.9781 60 59.1843ZM61.125 57.525C64.5 62.8718 66.375 69.1406 66.375 75.9625V76.5156C67.5 76.1468 68.8125 75.5937 69.75 74.8562C69.1875 67.6656 66.75 61.0281 62.625 55.3125C62.0625 55.8656 61.5 56.6031 61.125 57.525ZM63 46.4625C64.6875 44.9875 66.5625 43.6968 68.625 42.5906C67.875 42.2218 67.125 41.8531 66.375 41.6687C64.6875 42.775 63 43.8812 61.5 45.1718C61.875 45.5406 62.4375 46.0937 63 46.4625ZM75.75 69.1406C77.625 66.1906 78.75 62.6875 78.75 59C78.75 54.0218 76.6875 49.4125 73.5 46.0937C71.0625 47.3843 68.8125 48.8593 66.9375 50.7031C71.0625 56.05 74.0625 62.3187 75.75 69.1406ZM65.625 49.4124C67.5 47.7531 69.75 46.0937 72 44.8031C71.4375 44.2499 70.875 43.8812 70.3125 43.5125C68.0625 44.8031 66.1875 46.0937 64.125 47.7531C64.6875 48.3062 65.25 48.8593 65.625 49.4124Z" fill="#FFE62E"/>
</svg>
