<svg width="102" height="29" viewBox="0 0 102 29" fill="none" xmlns="http://www.w3.org/2000/svg">
<path d="M1.836 24.292C1.212 23.524 0.9 22.84 0.9 22.24C0.9 21.616 1.416 20.8 2.448 19.792C3.048 19.216 3.684 18.928 4.356 18.928C5.028 18.928 5.964 19.528 7.164 20.728C7.5 21.136 7.98 21.532 8.604 21.916C9.228 22.276 9.804 22.456 10.332 22.456C12.564 22.456 13.68 21.544 13.68 19.72C13.68 19.168 13.368 18.712 12.744 18.352C12.144 17.968 11.388 17.692 10.476 17.524C9.564 17.356 8.58 17.092 7.524 16.732C6.468 16.348 5.484 15.904 4.572 15.4C3.66 14.896 2.892 14.104 2.268 13.024C1.668 11.92 1.368 10.6 1.368 9.064C1.368 6.952 2.148 5.116 3.708 3.556C5.292 1.972 7.44 1.18 10.152 1.18C11.592 1.18 12.9 1.372 14.076 1.756C15.276 2.116 16.104 2.488 16.56 2.872L17.46 3.556C18.204 4.252 18.576 4.84 18.576 5.32C18.576 5.8 18.288 6.46 17.712 7.3C16.896 8.5 16.056 9.1 15.192 9.1C14.688 9.1 14.064 8.86 13.32 8.38C13.248 8.332 13.104 8.212 12.888 8.02C12.696 7.828 12.516 7.672 12.348 7.552C11.844 7.24 11.196 7.084 10.404 7.084C9.636 7.084 8.988 7.276 8.46 7.66C7.956 8.02 7.704 8.536 7.704 9.208C7.704 9.856 8.004 10.384 8.604 10.792C9.228 11.2 9.996 11.476 10.908 11.62C11.82 11.764 12.816 11.992 13.896 12.304C14.976 12.592 15.972 12.952 16.884 13.384C17.796 13.816 18.552 14.572 19.152 15.652C19.776 16.708 20.088 18.016 20.088 19.576C20.088 21.136 19.776 22.516 19.152 23.716C18.528 24.892 17.712 25.804 16.704 26.452C14.76 27.724 12.684 28.36 10.476 28.36C9.348 28.36 8.28 28.228 7.272 27.964C6.264 27.676 5.448 27.328 4.824 26.92C3.552 26.152 2.664 25.408 2.16 24.688L1.836 24.292ZM32.9403 9.1C35.3403 9.1 37.3323 10.012 38.9163 11.836C40.5243 13.66 41.3283 15.892 41.3283 18.532V24.868C41.3283 25.42 41.3043 25.84 41.2563 26.128C41.2323 26.392 41.1243 26.704 40.9323 27.064C40.6203 27.688 39.6963 28 38.1603 28C36.6963 28 35.7843 27.688 35.4243 27.064C35.2323 26.704 35.1123 26.38 35.0643 26.092C35.0403 25.804 35.0283 25.372 35.0283 24.796V18.496C35.0283 17.512 34.7523 16.744 34.2003 16.192C33.6483 15.64 32.9403 15.364 32.0763 15.364C31.2363 15.364 30.4923 15.628 29.8443 16.156C29.1963 16.66 28.8243 17.236 28.7283 17.884V24.868C28.7283 25.42 28.7043 25.84 28.6563 26.128C28.6323 26.392 28.5243 26.704 28.3323 27.064C28.0203 27.688 27.0963 28 25.5603 28C24.0483 28 23.1243 27.676 22.7883 27.028C22.6203 26.668 22.5123 26.356 22.4643 26.092C22.4403 25.828 22.4283 25.408 22.4283 24.832V3.304C22.4283 2.752 22.4403 2.344 22.4643 2.08C22.5123 1.792 22.6203 1.48 22.7883 1.144C23.1243 0.495998 24.0603 0.171998 25.5963 0.171998C27.1083 0.171998 28.0203 0.495998 28.3323 1.144C28.5243 1.504 28.6323 1.828 28.6563 2.116C28.7043 2.38 28.7283 2.788 28.7283 3.34V11.296C29.9283 9.832 31.3323 9.1 32.9403 9.1ZM56.5372 11.044C56.6812 9.7 57.6292 9.028 59.3812 9.028C60.3172 9.028 61.0132 9.1 61.4692 9.244C61.9252 9.388 62.2372 9.64 62.4052 10C62.5972 10.36 62.7052 10.684 62.7292 10.972C62.7772 11.236 62.8012 11.644 62.8012 12.196V24.796C62.8012 25.348 62.7772 25.768 62.7292 26.056C62.7052 26.32 62.6092 26.632 62.4412 26.992C62.1052 27.616 61.2772 27.928 59.9572 27.928C58.6612 27.928 57.7852 27.772 57.3292 27.46C56.8972 27.124 56.6452 26.644 56.5732 26.02C55.6852 27.292 54.1972 27.928 52.1092 27.928C50.0452 27.928 48.1252 26.98 46.3492 25.084C44.5732 23.188 43.6852 20.992 43.6852 18.496C43.6852 15.976 44.5732 13.78 46.3492 11.908C48.1492 10.012 50.1172 9.064 52.2532 9.064C53.0692 9.064 53.8132 9.208 54.4852 9.496C55.1572 9.784 55.6252 10.06 55.8892 10.324C56.1532 10.564 56.3692 10.804 56.5372 11.044ZM49.9852 18.532C49.9852 19.324 50.2972 20.044 50.9212 20.692C51.5452 21.316 52.3012 21.628 53.1892 21.628C54.0772 21.628 54.8092 21.304 55.3852 20.656C55.9852 20.008 56.2852 19.3 56.2852 18.532C56.2852 17.74 55.9972 17.008 55.4212 16.336C54.8692 15.664 54.1132 15.328 53.1532 15.328C52.2172 15.328 51.4492 15.664 50.8492 16.336C50.2732 17.008 49.9852 17.74 49.9852 18.532ZM77.9825 11.044C78.1265 9.7 79.0745 9.028 80.8265 9.028C81.7625 9.028 82.4585 9.1 82.9145 9.244C83.3705 9.388 83.6825 9.64 83.8505 10C84.0425 10.36 84.1505 10.684 84.1745 10.972C84.2225 11.236 84.2465 11.644 84.2465 12.196V24.796C84.2465 25.348 84.2225 25.768 84.1745 26.056C84.1505 26.32 84.0545 26.632 83.8865 26.992C83.5505 27.616 82.7225 27.928 81.4025 27.928C80.1065 27.928 79.2305 27.772 78.7745 27.46C78.3425 27.124 78.0905 26.644 78.0185 26.02C77.1305 27.292 75.6425 27.928 73.5545 27.928C71.4905 27.928 69.5705 26.98 67.7945 25.084C66.0185 23.188 65.1305 20.992 65.1305 18.496C65.1305 15.976 66.0185 13.78 67.7945 11.908C69.5945 10.012 71.5625 9.064 73.6985 9.064C74.5145 9.064 75.2585 9.208 75.9305 9.496C76.6025 9.784 77.0705 10.06 77.3345 10.324C77.5985 10.564 77.8145 10.804 77.9825 11.044ZM71.4305 18.532C71.4305 19.324 71.7425 20.044 72.3665 20.692C72.9905 21.316 73.7465 21.628 74.6345 21.628C75.5225 21.628 76.2545 21.304 76.8305 20.656C77.4305 20.008 77.7305 19.3 77.7305 18.532C77.7305 17.74 77.4425 17.008 76.8665 16.336C76.3145 15.664 75.5585 15.328 74.5985 15.328C73.6625 15.328 72.8945 15.664 72.2945 16.336C71.7185 17.008 71.4305 17.74 71.4305 18.532ZM100.004 9.244C100.46 9.388 100.832 9.64 101.12 10C101.432 10.336 101.588 10.888 101.588 11.656C101.588 12.424 101.36 13.264 100.904 14.176C100.448 15.088 99.7878 15.544 98.9238 15.544C98.4918 15.544 98.0718 15.448 97.6638 15.256C97.2798 15.064 96.7638 14.968 96.1158 14.968C95.4678 14.968 94.8558 15.196 94.2798 15.652C93.7278 16.108 93.4518 16.66 93.4518 17.308V24.868C93.4518 25.42 93.4278 25.84 93.3798 26.128C93.3558 26.392 93.2478 26.704 93.0558 27.064C92.6958 27.688 91.7598 28 90.2478 28C89.0958 28 88.2678 27.796 87.7638 27.388C87.3798 27.052 87.1638 26.536 87.1158 25.84C87.1158 25.6 87.1158 25.252 87.1158 24.796V12.16C87.1158 11.608 87.1278 11.2 87.1518 10.936C87.1998 10.648 87.3078 10.336 87.4758 10C87.8118 9.352 88.7478 9.028 90.2838 9.028C91.7238 9.028 92.6238 9.304 92.9838 9.856C93.2478 10.24 93.3798 10.636 93.3798 11.044C93.4998 10.876 93.6678 10.672 93.8838 10.432C94.1238 10.192 94.6158 9.868 95.3598 9.46C96.1038 9.052 96.7518 8.848 97.3038 8.848C97.8798 8.848 98.3598 8.884 98.7438 8.956C99.1278 9.004 99.5478 9.1 100.004 9.244Z" fill="#E2CA19"/>
</svg>
