<svg width="31" height="31" viewBox="0 0 31 31" fill="none" xmlns="http://www.w3.org/2000/svg">
<path fill-rule="evenodd" clip-rule="evenodd" d="M0 3.32143C0 2.44053 0.349935 1.59571 0.972824 0.972824C1.59571 0.349935 2.44053 0 3.32143 0L18.8214 0C19.7023 0 20.5471 0.349935 21.17 0.972824C21.7929 1.59571 22.1429 2.44053 22.1429 3.32143V7.61493C21.2444 8.33456 20.6615 9.37576 20.5176 10.5179H12.7321C12.0779 10.5179 11.43 10.6467 10.8256 10.8971C10.2211 11.1475 9.67187 11.5145 9.20924 11.9771C8.7466 12.4397 8.37962 12.989 8.12924 13.5934C7.87887 14.1979 7.75 14.8457 7.75 15.5C7.75 16.1543 7.87887 16.8021 8.12924 17.4066C8.37962 18.011 8.7466 18.5603 9.20924 19.0229C9.67187 19.4855 10.2211 19.8525 10.8256 20.1029C11.43 20.3533 12.0779 20.4821 12.7321 20.4821H20.5176C20.6615 21.6242 21.2444 22.6654 22.1429 23.3851V27.6786C22.1429 28.5595 21.7929 29.4043 21.17 30.0272C20.5471 30.6501 19.7023 31 18.8214 31H3.32143C2.44053 31 1.59571 30.6501 0.972824 30.0272C0.349935 29.4043 0 28.5595 0 27.6786L0 3.32143ZM24.2752 9.53693C23.9717 9.66263 23.7123 9.87552 23.5298 10.1487C23.3473 10.4218 23.25 10.7429 23.25 11.0714V13.2857H12.7321C12.1449 13.2857 11.5817 13.519 11.1664 13.9343C10.7511 14.3495 10.5179 14.9127 10.5179 15.5C10.5179 16.0873 10.7511 16.6505 11.1664 17.0657C11.5817 17.481 12.1449 17.7143 12.7321 17.7143H23.25V19.9286C23.2503 20.2568 23.3478 20.5776 23.5303 20.8504C23.7128 21.1233 23.9721 21.3359 24.2754 21.4615C24.5787 21.5871 24.9123 21.62 25.2343 21.556C25.5563 21.492 25.852 21.3341 26.0843 21.1021L30.5129 16.6736C30.8239 16.3622 30.9985 15.9401 30.9985 15.5C30.9985 15.0599 30.8239 14.6378 30.5129 14.3264L26.0843 9.89786C25.8522 9.6656 25.5565 9.50735 25.2345 9.44311C24.9125 9.37886 24.5787 9.41151 24.2752 9.53693Z" fill="#ECE8E8"/>
</svg>
