<svg
              width="40"
              height="40"
              viewBox="0 0 39 39"
              fill="none"
              xmlns="http://www.w3.org/2000/svg"
            >
              <path
                d="M16.5522 22.4477L18.0261 18.0261L22.4477 16.5522L20.9739 20.9739L16.5522 22.4477Z"
                fill="#149659"
              />
              <path
                d="M3.65625 19.5C3.65625 10.7494 10.7494 3.65625 19.5 3.65625C28.2506 3.65625 35.3438 10.7494 35.3438 19.5C35.3438 28.2506 28.2506 35.3438 19.5 35.3438C10.7494 35.3438 3.65625 28.2506 3.65625 19.5ZM25.532 15.0101C25.6039 14.7952 25.6145 14.5644 25.5625 14.3437C25.5105 14.1231 25.398 13.9213 25.2376 13.7611C25.0772 13.6009 24.8753 13.4886 24.6546 13.4368C24.4339 13.385 24.2031 13.3958 23.9883 13.468L16.6757 15.9055C16.4965 15.9657 16.3338 16.0668 16.2004 16.2008C16.067 16.3348 15.9666 16.4979 15.9071 16.6774L13.4696 23.9899C13.3985 24.2044 13.3883 24.4345 13.4404 24.6545C13.4925 24.8744 13.6048 25.0756 13.7646 25.2354C13.9244 25.3952 14.1256 25.5075 14.3455 25.5596C14.5655 25.6117 14.7956 25.6015 15.0101 25.5304L22.3226 23.0929C22.502 23.033 22.6649 22.9323 22.7986 22.7986C22.9323 22.6649 23.033 22.502 23.0929 22.3226L25.532 15.0101Z"
                fill="#149659"
              />
            </svg>