<svg width="27" height="33" viewBox="0 0 27 33" fill="none" xmlns="http://www.w3.org/2000/svg">
<path d="M13.5 0.822907C13.1381 0.822802 12.7803 0.899678 12.4503 1.04843C12.1204 1.19719 11.8259 1.41442 11.5863 1.6857C11.3467 1.95699 11.1676 2.27613 11.0608 2.62194C10.954 2.96775 10.922 3.33232 10.9669 3.69145C8.7708 4.25398 6.82444 5.53151 5.43474 7.32258C4.04503 9.11364 3.29104 11.3163 3.29167 13.5833V23.7917H1.83333C1.44656 23.7917 1.07563 23.9453 0.802136 24.2188C0.528645 24.4923 0.375 24.8632 0.375 25.25C0.375 25.6368 0.528645 26.0077 0.802136 26.2812C1.07563 26.5547 1.44656 26.7083 1.83333 26.7083H25.1667C25.5534 26.7083 25.9244 26.5547 26.1979 26.2812C26.4714 26.0077 26.625 25.6368 26.625 25.25C26.625 24.8632 26.4714 24.4923 26.1979 24.2188C25.9244 23.9453 25.5534 23.7917 25.1667 23.7917H23.7083V13.5833C23.709 11.3163 22.955 9.11364 21.5653 7.32258C20.1756 5.53151 18.2292 4.25398 16.0331 3.69145C16.0448 3.58839 16.0511 3.48291 16.0521 3.37499C16.0521 2.69814 15.7832 2.049 15.3046 1.57039C14.826 1.09179 14.1769 0.822907 13.5 0.822907ZM13.5 32.5417C12.3397 32.5417 11.2269 32.0807 10.4064 31.2603C9.58594 30.4398 9.125 29.327 9.125 28.1667H17.875C17.875 29.327 17.4141 30.4398 16.5936 31.2603C15.7731 32.0807 14.6603 32.5417 13.5 32.5417Z" fill="#237B52"/>
</svg>
