<svg width="35" height="35" viewBox="0 0 35 35" fill="none" xmlns="http://www.w3.org/2000/svg">
<path d="M17.5 1.823C17.1381 1.82289 16.7803 1.89977 16.4503 2.04852C16.1204 2.19728 15.8259 2.41451 15.5863 2.6858C15.3467 2.95708 15.1676 3.27622 15.0608 3.62203C14.954 3.96784 14.922 4.33241 14.9669 4.69154C12.7708 5.25408 10.8244 6.5316 9.43474 8.32267C8.04503 10.1137 7.29104 12.3164 7.29167 14.5834V24.7917H5.83333C5.44656 24.7917 5.07563 24.9454 4.80214 25.2189C4.52865 25.4924 4.375 25.8633 4.375 26.2501C4.375 26.6369 4.52865 27.0078 4.80214 27.2813C5.07563 27.5548 5.44656 27.7084 5.83333 27.7084H29.1667C29.5534 27.7084 29.9244 27.5548 30.1979 27.2813C30.4714 27.0078 30.625 26.6369 30.625 26.2501C30.625 25.8633 30.4714 25.4924 30.1979 25.2189C29.9244 24.9454 29.5534 24.7917 29.1667 24.7917H27.7083V14.5834C27.709 12.3164 26.955 10.1137 25.5653 8.32267C24.1756 6.5316 22.2292 5.25408 20.0331 4.69154C20.0448 4.58848 20.0511 4.483 20.0521 4.37508C20.0521 3.69823 19.7832 3.04909 19.3046 2.57049C18.826 2.09188 18.1769 1.823 17.5 1.823ZM17.5 33.5417C16.3397 33.5417 15.2269 33.0808 14.4064 32.2603C13.5859 31.4399 13.125 30.3271 13.125 29.1667H21.875C21.875 30.3271 21.4141 31.4399 20.5936 32.2603C19.7731 33.0808 18.6603 33.5417 17.5 33.5417Z" fill="white"/>
</svg>
