<svg width="72" height="71" viewBox="0 0 72 71" fill="none" xmlns="http://www.w3.org/2000/svg">
<g clip-path="url(#clip0_59_866)">
<path d="M36 0.020752C16.119 0.020752 0 15.904 0 35.4971C0 55.0901 16.119 70.9793 36 70.9793C55.881 70.9793 72 55.0931 72 35.5C72 15.907 55.881 0.020752 36 0.020752ZM33.315 14.3894H38.679C40.131 14.3894 40.866 14.3953 41.421 14.6734C41.9083 14.9176 42.3043 15.3081 42.552 15.7887C42.834 16.336 42.837 17.0548 42.837 18.4867V36.284C42.837 36.639 42.837 36.8224 42.792 36.9881C42.752 37.1346 42.6837 37.2722 42.591 37.3934C42.4369 37.573 42.2617 37.7339 42.069 37.8726L39.984 39.5411C39.645 39.8133 39.474 39.9494 39.411 40.115C39.3583 40.2584 39.3583 40.4154 39.411 40.5588C39.471 40.7215 39.645 40.8576 39.984 41.1298L42.069 42.8012C42.351 43.026 42.489 43.1414 42.591 43.2805C42.681 43.4047 42.748 43.5398 42.792 43.6858C42.8354 43.9178 42.8505 44.1542 42.837 44.3898V52.5134C42.837 53.9452 42.834 54.6641 42.552 55.2114C42.3043 55.6919 41.9083 56.0825 41.421 56.3267C40.866 56.6048 40.131 56.6107 38.679 56.6107H33.315C31.863 56.6107 31.137 56.6048 30.579 56.3267C30.0917 56.0825 29.6957 55.6919 29.448 55.2114C29.166 54.6641 29.163 53.9452 29.163 52.5134V34.7161C29.163 34.3611 29.163 34.1777 29.208 34.012C29.2473 33.8634 29.3156 33.7237 29.409 33.6008C29.511 33.4618 29.649 33.3553 29.931 33.1275L32.016 31.459C32.355 31.1868 32.526 31.0507 32.589 30.885C32.6417 30.7417 32.6417 30.5846 32.589 30.4413C32.529 30.2786 32.355 30.1425 32.016 29.8703L29.931 28.1989C29.7383 28.0602 29.5631 27.8993 29.409 27.7196C29.3156 27.5967 29.2473 27.4571 29.208 27.3084C29.1651 27.0783 29.1499 26.8439 29.163 26.6103V18.4896C29.163 17.0578 29.166 16.3389 29.448 15.7916C29.6957 15.3111 30.0917 14.9206 30.579 14.6763C31.137 14.3983 31.863 14.3894 33.315 14.3894Z" fill="#148751"/>
</g>
<defs>
<clipPath id="clip0_59_866">
<rect width="72" height="71" fill="white"/>
</clipPath>
</defs>
</svg>
