<svg width="78" height="74" viewBox="0 0 78 74" fill="none" xmlns="http://www.w3.org/2000/svg">
<g clip-path="url(#clip0_59_982)">
<path d="M39 0.0214844C17.4622 0.0214844 0 16.5759 0 36.9968C0 57.4177 17.4622 73.9783 39 73.9783C60.5378 73.9783 78 57.4208 78 36.9999C78 16.579 60.5378 0.0214844 39 0.0214844ZM36.0912 14.9972H41.9022C43.4753 14.9972 44.2715 15.0034 44.8727 15.2932C45.4007 15.5478 45.8297 15.9548 46.098 16.4557C46.4035 17.0261 46.4067 17.7753 46.4067 19.2677V37.817C46.4067 38.187 46.4067 38.3782 46.358 38.5508C46.3146 38.7036 46.2407 38.847 46.1402 38.9732C45.9734 39.1605 45.7835 39.3282 45.5747 39.4727L43.316 41.2117C42.9487 41.4954 42.7635 41.6372 42.6953 41.8099C42.6381 41.9593 42.6381 42.123 42.6953 42.2724C42.7603 42.442 42.9487 42.5838 43.316 42.8675L45.5747 44.6096C45.8802 44.8439 46.0297 44.9641 46.1402 45.1091C46.2377 45.2386 46.3103 45.3794 46.358 45.5315C46.405 45.7734 46.4214 46.0197 46.4067 46.2653V54.7321C46.4067 56.2245 46.4035 56.9737 46.098 57.5442C45.8297 58.045 45.4007 58.452 44.8727 58.7066C44.2715 58.9964 43.4753 59.0026 41.9022 59.0026H36.0912C34.5182 59.0026 33.7318 58.9964 33.1273 58.7066C32.5993 58.452 32.1703 58.045 31.902 57.5442C31.5965 56.9737 31.5932 56.2245 31.5932 54.7321V36.1828C31.5932 35.8128 31.5933 35.6217 31.642 35.449C31.6846 35.2941 31.7585 35.1485 31.8598 35.0204C31.9703 34.8755 32.1198 34.7645 32.4253 34.5271L34.684 32.7881C35.0513 32.5044 35.2365 32.3626 35.3047 32.1899C35.3619 32.0405 35.3619 31.8768 35.3047 31.7274C35.2397 31.5578 35.0513 31.416 34.684 31.1323L32.4253 29.3902C32.2165 29.2457 32.0266 29.078 31.8598 28.8907C31.7585 28.7626 31.6846 28.6171 31.642 28.4622C31.5955 28.2223 31.5791 27.978 31.5932 27.7345V19.2707C31.5932 17.7784 31.5965 17.0292 31.902 16.4587C32.1703 15.9579 32.5993 15.5509 33.1273 15.2963C33.7318 15.0065 34.5182 14.9972 36.0912 14.9972Z" fill="#EFFFF7"/>
</g>
<defs>
<clipPath id="clip0_59_982">
<rect width="78" height="74" fill="white"/>
</clipPath>
</defs>
</svg>
