<svg width="37" height="35" viewBox="0 0 37 35" fill="none" xmlns="http://www.w3.org/2000/svg">
<g opacity="0.53">
<path d="M6.1665 18.9583C4.88178 18.9583 3.78977 18.5329 2.89046 17.6822C1.99116 16.8315 1.5415 15.7985 1.5415 14.5833C1.5415 13.368 1.99116 12.335 2.89046 11.4843C3.78977 10.6336 4.88178 10.2083 6.1665 10.2083C7.45123 10.2083 8.54324 10.6336 9.44255 11.4843C10.3419 12.335 10.7915 13.368 10.7915 14.5833C10.7915 15.7985 10.3419 16.8315 9.44255 17.6822C8.54324 18.5329 7.45123 18.9583 6.1665 18.9583ZM30.8332 18.9583C29.5485 18.9583 28.4564 18.5329 27.5571 17.6822C26.6578 16.8315 26.2082 15.7985 26.2082 14.5833C26.2082 13.368 26.6578 12.335 27.5571 11.4843C28.4564 10.6336 29.5485 10.2083 30.8332 10.2083C32.1179 10.2083 33.2099 10.6336 34.1092 11.4843C35.0085 12.335 35.4582 13.368 35.4582 14.5833C35.4582 15.7985 35.0085 16.8315 34.1092 17.6822C33.2099 18.5329 32.1179 18.9583 30.8332 18.9583ZM22.354 16.9895L15.9561 10.9374C16.3158 10.6944 16.7141 10.5121 17.1509 10.3905C17.5877 10.269 18.0373 10.2083 18.4998 10.2083C19.7846 10.2083 20.8766 10.6336 21.7759 11.4843C22.6752 12.335 23.1248 13.368 23.1248 14.5833C23.1248 15.0208 23.0606 15.4461 22.9321 15.8593C22.8037 16.2725 22.6109 16.6492 22.354 16.9895ZM30.5248 32.9583L24.9748 27.7083H3.08317V24.7916H21.8915L2.15817 6.12492L4.3165 4.08325L32.6832 30.9166L30.5248 32.9583Z" fill="#B3FFDB"/>
</g>
</svg>
