<svg width="32" height="35" viewBox="0 0 32 35" fill="none" xmlns="http://www.w3.org/2000/svg">
<path d="M8.29059 0.500001C7.59081 0.499535 6.89909 0.665677 6.26223 0.987194C5.62536 1.30871 5.0582 1.7781 4.59909 2.36363C1.11267 6.2375 0.08917 10.5959 0.959337 14.9798C1.80267 19.2191 4.36717 23.2524 7.58334 26.8202C10.8033 30.3881 14.4393 33.2335 18.2592 34.1706C22.2113 35.1396 26.1463 34.0155 29.6442 30.165C30.1742 29.6553 30.5994 29.0253 30.8908 28.3176C31.1822 27.6099 31.3331 26.8411 31.3333 26.0632C31.3335 25.2852 31.183 24.5163 30.8919 23.8085C30.6008 23.1006 30.1759 22.4704 29.6461 21.9604L27.3269 19.3891C26.3602 18.3186 25.0497 17.7172 23.6833 17.7172C22.317 17.7172 21.0065 18.3186 20.0398 19.3891L18.8572 20.7024C18.7137 20.8615 18.5434 20.9877 18.3559 21.0738C18.1685 21.1599 17.9676 21.2042 17.7647 21.2042C17.5618 21.2042 17.3608 21.1599 17.1734 21.0738C16.9859 20.9877 16.8156 20.8615 16.6722 20.7024L13.1187 16.7605C12.8293 16.439 12.6669 16.0034 12.6669 15.5493C12.6669 15.0951 12.8293 14.6595 13.1187 14.338L14.3032 13.0205C15.2694 11.9486 15.8121 10.4952 15.8121 8.97981C15.8121 7.46441 15.2694 6.01102 14.3032 4.93913L11.984 2.36575C11.524 1.78065 10.9565 1.31143 10.3195 0.98963C9.68241 0.667825 8.99064 0.500878 8.29059 0.500001Z" fill="#149659"/>
</svg>
