<svg width="77" height="76" viewBox="0 0 77 76" fill="none" xmlns="http://www.w3.org/2000/svg">
<path fill-rule="evenodd" clip-rule="evenodd" d="M38.5001 0.5C43.4794 0.499977 48.4099 1.46992 53.0102 3.35446C57.6105 5.239 61.7904 8.00122 65.3113 11.4834C68.8322 14.9656 71.6252 19.0996 73.5307 23.6493C75.4361 28.199 76.4169 33.0754 76.4169 37.9999C76.4169 58.7107 59.441 75.5001 38.5001 75.5001C17.5594 75.5001 0.583496 58.7107 0.583496 37.9999C0.583496 17.2894 17.5594 0.5 38.5001 0.5ZM42.2919 41.7501H34.7085C25.3215 41.7501 17.2624 47.3728 13.7865 55.3991C19.2863 63.0264 28.306 68 38.5001 68C48.6942 68 57.7139 63.0264 63.2139 55.3986C59.7379 47.3728 51.6789 41.7501 42.2919 41.7501ZM38.5001 11.75C32.2179 11.75 27.1251 16.7868 27.1251 23C27.1251 29.2132 32.2179 34.25 38.5001 34.25C44.7823 34.25 49.8751 29.2132 49.8751 23C49.8751 16.7868 44.7825 11.75 38.5001 11.75Z" fill="#EFFFF7"/>
</svg>
