<svg width="27" height="29" viewBox="0 0 27 29" fill="none" xmlns="http://www.w3.org/2000/svg">
<path fill-rule="evenodd" clip-rule="evenodd" d="M7.66667 6.88897C7.66667 5.23873 8.28125 3.65609 9.37521 2.48919C10.4692 1.3223 11.9529 0.666748 13.5 0.666748C15.0471 0.666748 16.5308 1.3223 17.6248 2.48919C18.7188 3.65609 19.3333 5.23873 19.3333 6.88897C19.3333 8.53921 18.7188 10.1219 17.6248 11.2887C16.5308 12.4556 15.0471 13.1112 13.5 13.1112C11.9529 13.1112 10.4692 12.4556 9.37521 11.2887C8.28125 10.1219 7.66667 8.53921 7.66667 6.88897ZM7.66667 16.2223C5.7328 16.2223 3.87813 17.0417 2.51068 18.5004C1.14323 19.959 0.375 21.9373 0.375 24.0001C0.375 25.2378 0.835936 26.4247 1.65641 27.2999C2.47688 28.1751 3.58968 28.6667 4.75 28.6667H22.25C23.4103 28.6667 24.5231 28.1751 25.3436 27.2999C26.1641 26.4247 26.625 25.2378 26.625 24.0001C26.625 21.9373 25.8568 19.959 24.4893 18.5004C23.1219 17.0417 21.2672 16.2223 19.3333 16.2223H7.66667Z" fill="white"/>
</svg>
