<svg
              width="40"
              height="40"
              viewBox="0 0 41 41"
              fill="none"
              xmlns="http://www.w3.org/2000/svg"
            >
              <path
                d="M13.5983 5.125H14.8061C15.2592 5.125 15.6937 5.30498 16.0141 5.62536C16.3345 5.94573 16.5145 6.38026 16.5145 6.83333C16.5145 7.28641 16.3345 7.72093 16.0141 8.04131C15.6937 8.36168 15.2592 8.54167 14.8061 8.54167H13.6667C12.4418 8.54167 11.6269 8.54167 11.0017 8.59292C10.3935 8.64417 10.1167 8.73129 9.94079 8.82013C9.4582 9.06587 9.06587 9.4582 8.82013 9.94079C8.73129 10.1167 8.64417 10.3935 8.59463 11C8.54167 11.6269 8.54167 12.4418 8.54167 13.6667V14.8061C8.54167 15.2592 8.36168 15.6937 8.04131 16.0141C7.72093 16.3345 7.28641 16.5145 6.83333 16.5145C6.38026 16.5145 5.94573 16.3345 5.62536 16.0141C5.30498 15.6937 5.125 15.2592 5.125 14.8061V13.5983C5.125 12.4606 5.125 11.5039 5.18821 10.7232C5.25654 9.90321 5.40004 9.12762 5.77588 8.38962C6.34919 7.26417 7.26417 6.34919 8.38962 5.77588C9.12762 5.40004 9.90492 5.25654 10.7232 5.18821C11.5039 5.125 12.4606 5.125 13.5983 5.125ZM29.9983 8.59292C29.3748 8.54167 28.5599 8.54167 27.3333 8.54167H26.1939C25.7408 8.54167 25.3063 8.36168 24.9859 8.04131C24.6655 7.72093 24.4855 7.28641 24.4855 6.83333C24.4855 6.38026 24.6655 5.94573 24.9859 5.62536C25.3063 5.30498 25.7408 5.125 26.1939 5.125H27.4017C28.5394 5.125 29.4961 5.125 30.2768 5.18821C31.0968 5.25654 31.8724 5.40004 32.6104 5.77588C33.7358 6.34919 34.6508 7.26417 35.2241 8.38962C35.6 9.12762 35.7452 9.90492 35.8118 10.7232C35.875 11.5039 35.875 12.4606 35.875 13.5983V14.8061C35.875 15.2592 35.695 15.6937 35.3746 16.0141C35.0543 16.3345 34.6197 16.5145 34.1667 16.5145C33.7136 16.5145 33.2791 16.3345 32.9587 16.0141C32.6383 15.6937 32.4583 15.2592 32.4583 14.8061V13.6667C32.4583 12.4418 32.4583 11.6269 32.4071 11.0017C32.3558 10.3935 32.2687 10.1167 32.1799 9.94079C31.9341 9.4582 31.5418 9.06587 31.0592 8.82013C30.8832 8.73129 30.6065 8.64417 30 8.59463M6.83333 24.4855C7.28641 24.4855 7.72093 24.6655 8.04131 24.9859C8.36168 25.3063 8.54167 25.7408 8.54167 26.1939V27.3333C8.54167 28.5582 8.54167 29.3731 8.59292 29.9983C8.64417 30.6065 8.73129 30.8832 8.82013 31.0592C9.06587 31.5418 9.4582 31.9341 9.94079 32.1799C10.1167 32.2687 10.3935 32.3558 11 32.4054C11.6269 32.4583 12.4418 32.4583 13.6667 32.4583H14.8061C15.2592 32.4583 15.6937 32.6383 16.0141 32.9587C16.3345 33.2791 16.5145 33.7136 16.5145 34.1667C16.5145 34.6197 16.3345 35.0543 16.0141 35.3746C15.6937 35.695 15.2592 35.875 14.8061 35.875H13.5983C12.4606 35.875 11.5039 35.875 10.7232 35.8118C9.90321 35.7435 9.12762 35.6 8.38962 35.2241C7.26417 34.6508 6.34919 33.7358 5.77588 32.6104C5.40004 31.8724 5.25654 31.0951 5.18821 30.2768C5.125 29.4961 5.125 28.5394 5.125 27.4017V26.1939C5.125 25.7408 5.30498 25.3063 5.62536 24.9859C5.94573 24.6655 6.38026 24.4855 6.83333 24.4855ZM34.1667 24.4855C34.6197 24.4855 35.0543 24.6655 35.3746 24.9859C35.695 25.3063 35.875 25.7408 35.875 26.1939V27.4017C35.875 28.5394 35.875 29.4961 35.8118 30.2768C35.7435 31.0968 35.6 31.8724 35.2241 32.6104C34.6508 33.7358 33.7358 34.6508 32.6104 35.2241C31.8724 35.6 31.0951 35.7452 30.2768 35.8118C29.4961 35.875 28.5394 35.875 27.4017 35.875H26.1939C25.7408 35.875 25.3063 35.695 24.9859 35.3746C24.6655 35.0543 24.4855 34.6197 24.4855 34.1667C24.4855 33.7136 24.6655 33.2791 24.9859 32.9587C25.3063 32.6383 25.7408 32.4583 26.1939 32.4583H27.3333C28.5582 32.4583 29.3731 32.4583 29.9983 32.4071C30.6065 32.3558 30.8832 32.2687 31.0592 32.1799C31.5418 31.9341 31.9341 31.5418 32.1799 31.0592C32.2687 30.8832 32.3558 30.6065 32.4054 30C32.4583 29.3731 32.4583 28.5582 32.4583 27.3333V26.1939C32.4583 25.7408 32.6383 25.3063 32.9587 24.9859C33.2791 24.6655 33.7136 24.4855 34.1667 24.4855Z"
                fill="#149659"
              />
              <path
                d="M23.0624 21.3542C23.5155 21.3542 23.95 21.5342 24.2704 21.8545C24.5908 22.1749 24.7708 22.6094 24.7708 23.0625V23.3188C24.7708 23.8261 24.7708 24.1029 24.7879 24.3011L24.7913 24.325H24.8135C25.0116 24.3421 25.2884 24.3438 25.7958 24.3438H26.3629C26.7934 24.3438 27.2137 24.3438 27.569 24.3728C27.9602 24.4053 28.4215 24.4804 28.8844 24.7162C29.5273 25.0438 30.05 25.5664 30.3775 26.2093C30.6133 26.6722 30.6884 27.1335 30.7209 27.5247C30.7499 27.88 30.7499 28.3003 30.7499 28.7308V29.0417C30.7499 29.4948 30.57 29.9293 30.2496 30.2497C29.9292 30.57 29.4947 30.75 29.0416 30.75C28.5885 30.75 28.154 30.57 27.8336 30.2497C27.5133 29.9293 27.3333 29.4948 27.3333 29.0417V28.7854C27.3333 28.2781 27.3333 28.0013 27.3162 27.8031L27.3145 27.7809L27.2906 27.7775C26.9634 27.7601 26.6358 27.7544 26.3083 27.7604H25.7411C25.3106 27.7604 24.8904 27.7604 24.535 27.7314C24.078 27.7062 23.6307 27.5894 23.2196 27.388C22.5767 27.0605 22.0541 26.5378 21.7265 25.8949C21.5251 25.4839 21.4083 25.0366 21.3832 24.5795C21.3541 24.2242 21.3541 23.8039 21.3541 23.3734V23.0625C21.3541 22.6094 21.5341 22.1749 21.8545 21.8545C22.1748 21.5342 22.6094 21.3542 23.0624 21.3542ZM25.3243 10.6771C24.8835 10.6771 24.4804 10.6771 24.1421 10.7044C23.7413 10.7278 23.349 10.8293 22.9873 11.0034C22.4246 11.2901 21.9671 11.7475 21.6804 12.3103C21.4788 12.7032 21.4105 13.1012 21.3814 13.4651C21.3541 13.8034 21.3541 14.2065 21.3541 14.6473V15.2486C21.3541 15.6894 21.3541 16.0925 21.3814 16.4308C21.4122 16.7946 21.4788 17.1927 21.6804 17.5856C21.9657 18.1494 22.4235 18.6072 22.9873 18.8925C23.3802 19.0941 23.7782 19.1624 24.1421 19.1914C24.4804 19.2188 24.8835 19.2188 25.3243 19.2188H25.9256C26.3664 19.2188 26.7695 19.2188 27.1078 19.1914C27.5085 19.1681 27.9009 19.0666 28.2626 18.8925C28.8251 18.6063 29.2825 18.1494 29.5695 17.5873C29.7711 17.1944 29.8377 16.7946 29.8684 16.4308C29.8958 16.0925 29.8958 15.6894 29.8958 15.2486V14.6473C29.8958 14.2065 29.8958 13.8034 29.8684 13.4651C29.8451 13.0643 29.7436 12.672 29.5695 12.3103C29.2828 11.7475 28.8253 11.2901 28.2626 11.0034C27.9009 10.8293 27.5085 10.7278 27.1078 10.7044C26.7142 10.6802 26.3199 10.6711 25.9256 10.6771H25.3243ZM15.0743 10.6771H15.6756C16.1164 10.6771 16.5195 10.6771 16.8578 10.7044C17.2216 10.7352 17.6197 10.8018 18.0126 11.0034C18.5764 11.2904 19.0342 11.7465 19.3195 12.3103C19.5211 12.7032 19.5894 13.1012 19.6184 13.4651C19.6458 13.8034 19.6458 14.2065 19.6458 14.6473V15.2486C19.6458 15.6894 19.6458 16.0925 19.6184 16.4308C19.5951 16.8315 19.4936 17.2239 19.3195 17.5856C19.0333 18.1481 18.5764 18.6055 18.0143 18.8925C17.6214 19.0941 17.2216 19.1624 16.8578 19.1914C16.5195 19.2188 16.1164 19.2188 15.6756 19.2188H15.0743C14.6335 19.2188 14.2304 19.2188 13.8921 19.1914C13.4913 19.1681 13.099 19.0666 12.7373 18.8925C12.1748 18.6063 11.7173 18.1494 11.4304 17.5873C11.2561 17.225 11.1545 16.8321 11.1314 16.4308C11.1072 16.0372 11.0981 15.6429 11.1041 15.2486V14.6473C11.1041 14.2065 11.1041 13.8034 11.1314 13.4651C11.1548 13.0643 11.2563 12.672 11.4304 12.3103C11.7171 11.7475 12.1745 11.2901 12.7373 11.0034C13.099 10.8293 13.4913 10.7278 13.8921 10.7044C14.2304 10.6771 14.6335 10.6771 15.0743 10.6771ZM15.0743 21.3542C14.6335 21.3542 14.2304 21.3542 13.8921 21.3815C13.4913 21.4048 13.099 21.5064 12.7373 21.6805C12.1745 21.9671 11.7171 22.4246 11.4304 22.9874C11.2563 23.3491 11.1548 23.7414 11.1314 24.1422C11.1072 24.5357 11.0981 24.9301 11.1041 25.3244V25.9257C11.1041 26.3664 11.1041 26.7696 11.1314 27.1079C11.1622 27.4717 11.2288 27.8698 11.4304 28.2627C11.7174 28.8264 12.1735 29.2843 12.7373 29.5696C13.1302 29.7711 13.5282 29.8378 13.8921 29.8685C14.2304 29.8959 14.6335 29.8959 15.0743 29.8959H15.6756C16.1164 29.8959 16.5195 29.8959 16.8578 29.8685C17.2585 29.8452 17.6509 29.7436 18.0126 29.5696C18.5753 29.2829 19.0328 28.8254 19.3195 28.2627C19.5211 27.8698 19.5894 27.4717 19.6184 27.1079C19.6458 26.7696 19.6458 26.3664 19.6458 25.9257V25.3244C19.6458 24.8836 19.6458 24.4804 19.6184 24.1422C19.5951 23.7414 19.4936 23.3491 19.3195 22.9874C19.0333 22.4249 18.5764 21.9674 18.0143 21.6805C17.6521 21.5062 17.2591 21.4046 16.8578 21.3815C16.5195 21.3542 16.1164 21.3542 15.6756 21.3542H15.0743Z"
                fill="#149659"
              />
            </svg>