            <svg
              width="40"
              height="40"
              viewBox="0 0 37 37"
              fill="none"
              xmlns="http://www.w3.org/2000/svg"
            >
              <path
                fill-rule="evenodd"
                clip-rule="evenodd"
                d="M16.9583 3.08337C14.742 3.08361 12.558 3.61479 10.5891 4.63243C8.62017 5.65007 6.9237 7.12457 5.64168 8.93249C4.35966 10.7404 3.52938 12.8291 3.22037 15.0238C2.91135 17.2185 3.13258 19.4553 3.86554 21.5469C4.5985 23.6386 5.82186 25.5242 7.4332 27.0459C9.04455 28.5677 10.997 29.6813 13.1271 30.2935C15.2572 30.9057 17.503 30.9988 19.6764 30.5648C21.8499 30.1309 23.8877 29.1826 25.6194 27.7994L31.285 33.465C31.5758 33.7458 31.9652 33.9012 32.3695 33.8977C32.7737 33.8942 33.1603 33.7321 33.4462 33.4462C33.732 33.1604 33.8942 32.7737 33.8977 32.3695C33.9012 31.9653 33.7458 31.5758 33.465 31.2851L27.7993 25.6195C29.4304 23.5781 30.4519 21.1176 30.7462 18.5213C31.0406 15.9249 30.5958 13.2982 29.463 10.9436C28.3303 8.58887 26.5557 6.60189 24.3435 5.21133C22.1312 3.82077 19.5713 3.08315 16.9583 3.08337ZM7.70834 16.9584C7.70834 15.7436 7.9476 14.5408 8.41245 13.4186C8.87731 12.2963 9.55866 11.2766 10.4176 10.4176C11.2765 9.55869 12.2963 8.87734 13.4185 8.41249C14.5408 7.94763 15.7436 7.70837 16.9583 7.70837C18.1731 7.70837 19.3759 7.94763 20.4982 8.41249C21.6204 8.87734 22.6401 9.55869 23.4991 10.4176C24.358 11.2766 25.0394 12.2963 25.5042 13.4186C25.9691 14.5408 26.2083 15.7436 26.2083 16.9584C26.2083 19.4116 25.2338 21.7644 23.4991 23.4991C21.7644 25.2338 19.4116 26.2084 16.9583 26.2084C14.5051 26.2084 12.1523 25.2338 10.4176 23.4991C8.68289 21.7644 7.70834 19.4116 7.70834 16.9584Z"
                fill="#149659"
              />
            </svg>