<svg width="37" height="37" viewBox="0 0 37 37" fill="none" xmlns="http://www.w3.org/2000/svg">
<circle cx="18" cy="19" r="18" fill="#2C9765"/>
<path fill-rule="evenodd" clip-rule="evenodd" d="M22.4601 21.3188L26.7639 25.6227C26.9151 25.7741 27.0001 25.9793 27 26.1933C26.9999 26.4074 26.9148 26.6126 26.7635 26.7639C26.6121 26.9151 26.4068 27.0001 26.1928 27C25.9788 26.9999 25.7736 26.9148 25.6223 26.7635L21.3185 22.4595C20.0319 23.4561 18.4141 23.925 16.794 23.771C15.174 23.617 13.6735 22.8516 12.5977 21.6305C11.522 20.4093 10.9518 18.8243 11.0032 17.1977C11.0546 15.5711 11.7237 14.0252 12.8744 12.8745C14.0251 11.7237 15.571 11.0546 17.1975 11.0032C18.8241 10.9518 20.4091 11.522 21.6302 12.5977C22.8513 13.6735 23.6167 15.1741 23.7707 16.7942C23.9247 18.4143 23.4558 20.0322 22.4593 21.3188M17.4003 22.1996C18.6733 22.1996 19.8941 21.6939 20.7943 20.7937C21.6944 19.8935 22.2001 18.6727 22.2001 17.3997C22.2001 16.1266 21.6944 14.9058 20.7943 14.0056C19.8941 13.1055 18.6733 12.5998 17.4003 12.5998C16.1273 12.5998 14.9065 13.1055 14.0063 14.0056C13.1062 14.9058 12.6005 16.1266 12.6005 17.3997C12.6005 18.6727 13.1062 19.8935 14.0063 20.7937C14.9065 21.6939 16.1273 22.1996 17.4003 22.1996Z" fill="white"/>
</svg>
