<svg width="31" height="32" viewBox="0 0 31 32" fill="none" xmlns="http://www.w3.org/2000/svg">
<path fill-rule="evenodd" clip-rule="evenodd" d="M12.5323 1.09643C12.2419 0.883879 11.9037 0.745755 11.5476 0.694146C11.1914 0.642536 10.828 0.679014 10.4892 0.800387C8.90497 1.38104 7.43356 2.23221 6.14041 3.31601C5.86647 3.5486 5.65361 3.84469 5.52041 4.17846C5.38721 4.51222 5.33771 4.87351 5.37625 5.2308C5.48562 6.32893 5.29166 7.38914 4.76375 8.30205C4.23729 9.21643 3.41479 9.91497 2.40854 10.3685C2.07939 10.5142 1.79096 10.7383 1.5685 11.0213C1.34604 11.3042 1.19634 11.6374 1.1325 11.9916C0.842716 13.6513 0.842716 15.3486 1.1325 17.0083C1.26812 17.7914 1.80333 18.3587 2.40854 18.6329C3.41479 19.085 4.23729 19.785 4.76521 20.6979C5.29166 21.6123 5.48562 22.671 5.37625 23.7691C5.31062 24.4283 5.53229 25.175 6.14041 25.6839C7.43356 26.7677 8.90497 27.6189 10.4892 28.1996C10.8278 28.3207 11.1909 28.357 11.5468 28.3054C11.9027 28.2538 12.2406 28.1158 12.5308 27.9035C13.4277 27.2589 14.4442 26.8958 15.5 26.8958C16.5558 26.8958 17.5708 27.2589 18.4677 27.9035C19.0073 28.2914 19.7656 28.4723 20.5108 28.1996C22.095 27.6189 23.5664 26.7677 24.8596 25.6839C25.4677 25.175 25.6908 24.4298 25.6237 23.7691C25.5144 22.671 25.7069 21.6108 26.2362 20.6979C26.7627 19.7835 27.5852 19.0864 28.5915 18.6329C29.1952 18.3602 29.7319 17.7914 29.8675 17.0083C30.1573 15.3486 30.1573 13.6513 29.8675 11.9916C29.8036 11.6374 29.6539 11.3042 29.4315 11.0213C29.209 10.7383 28.9206 10.5142 28.5915 10.3685C27.5852 9.91497 26.7627 9.21643 26.2348 8.30205C25.7069 7.38914 25.5144 6.32893 25.6237 5.2308C25.6623 4.87351 25.6128 4.51222 25.4796 4.17846C25.3464 3.84469 25.1335 3.5486 24.8596 3.31601C23.5664 2.23221 22.095 1.38104 20.5108 0.800387C20.1722 0.679267 19.8091 0.642923 19.4532 0.694529C19.0973 0.746135 18.7594 0.884121 18.4692 1.09643C17.5708 1.73955 16.5544 2.10414 15.5 2.10414C14.4456 2.10414 13.4292 1.74101 12.5323 1.09643ZM11.125 14.5C11.125 13.3396 11.5859 12.2268 12.4064 11.4064C13.2269 10.5859 14.3397 10.125 15.5 10.125C16.6603 10.125 17.7731 10.5859 18.5936 11.4064C19.4141 12.2268 19.875 13.3396 19.875 14.5C19.875 15.6603 19.4141 16.7731 18.5936 17.5936C17.7731 18.414 16.6603 18.875 15.5 18.875C14.3397 18.875 13.2269 18.414 12.4064 17.5936C11.5859 16.7731 11.125 15.6603 11.125 14.5Z" fill="#ECE8E8"/>
</svg>
