<svg width="18" height="18" viewBox="0 0 18 18" fill="none" xmlns="http://www.w3.org/2000/svg">
<path d="M13.5283 12.5753C12.5525 12.8214 11.5338 12.8095 10.5635 12.5406C9.59318 12.2716 8.70148 11.7541 7.96826 11.0343C7.23505 10.3145 6.68321 9.41484 6.36215 8.41599C6.0411 7.41713 5.96087 6.35022 6.12862 5.31079C6.10349 5.33711 6.07653 5.36143 6.04795 5.38354C5.84806 5.54329 5.59819 5.60254 5.09845 5.72104L4.64511 5.82904C2.88889 6.24679 2.01078 6.45529 1.8016 7.16104C1.59314 7.86604 2.1914 8.60179 3.38863 10.0725L3.69847 10.4528C4.03829 10.8705 4.20891 11.0798 4.2853 11.3378C4.36169 11.5965 4.33599 11.8755 4.28459 12.4328L4.23747 12.9405C4.05685 14.9033 3.96618 15.8843 4.51304 16.32C5.0599 16.7558 5.88232 16.359 7.52575 15.5633L7.95196 15.3578C8.41885 15.1313 8.6523 15.0188 8.90003 15.0188C9.14776 15.0188 9.38121 15.1313 9.84882 15.3578L10.2736 15.5633C11.9177 16.3583 12.7402 16.7558 13.2863 16.3208C13.8339 15.8843 13.7432 14.9033 13.5626 12.9405L13.5283 12.5753Z" fill="#E2CA19"/>
<path opacity="0.5" d="M6.86729 4.056L6.63313 4.497C6.37612 4.9815 6.24761 5.22375 6.04772 5.3835C6.07628 5.361 6.10317 5.33675 6.12839 5.31075C5.96059 6.35026 6.04082 7.41726 6.36191 8.41619C6.68299 9.41512 7.23491 10.3148 7.96821 11.0346C8.70152 11.7545 9.59333 12.272 10.5638 12.5409C11.5342 12.8097 12.553 12.8216 13.5288 12.5753L13.5145 12.4328C13.4638 11.8755 13.4381 11.5965 13.5145 11.3378C13.5909 11.0798 13.7608 10.8705 14.1014 10.4528L14.4112 10.0725C15.6084 8.6025 16.2067 7.86675 15.9975 7.161C15.789 6.45525 14.9109 6.246 13.1547 5.829L12.7007 5.721C12.2016 5.6025 11.9518 5.54325 11.7512 5.3835C11.5513 5.22375 11.4228 4.9815 11.1658 4.497L10.9323 4.056C10.0278 2.352 9.57587 1.5 8.8998 1.5C8.22372 1.5 7.77182 2.352 6.86729 4.056Z" fill="#E2CA19"/>
</svg>
