<svg width="35" height="38" viewBox="0 0 35 38" fill="none" xmlns="http://www.w3.org/2000/svg">
<path fill-rule="evenodd" clip-rule="evenodd" d="M11.6667 10.889C11.6667 9.23873 12.2812 7.65609 13.3752 6.48919C14.4692 5.3223 15.9529 4.66675 17.5 4.66675C19.0471 4.66675 20.5308 5.3223 21.6248 6.48919C22.7188 7.65609 23.3333 9.23873 23.3333 10.889C23.3333 12.5392 22.7188 14.1219 21.6248 15.2887C20.5308 16.4556 19.0471 17.1112 17.5 17.1112C15.9529 17.1112 14.4692 16.4556 13.3752 15.2887C12.2812 14.1219 11.6667 12.5392 11.6667 10.889ZM11.6667 20.2223C9.7328 20.2223 7.87813 21.0417 6.51068 22.5004C5.14323 23.959 4.375 25.9373 4.375 28.0001C4.375 29.2378 4.83594 30.4247 5.65641 31.2999C6.47688 32.1751 7.58968 32.6667 8.75 32.6667H26.25C27.4103 32.6667 28.5231 32.1751 29.3436 31.2999C30.1641 30.4247 30.625 29.2378 30.625 28.0001C30.625 25.9373 29.8568 23.959 28.4893 22.5004C27.1219 21.0417 25.2672 20.2223 23.3333 20.2223H11.6667Z" fill="white"/>
</svg>
