<svg width="37" height="37" viewBox="0 0 37 37" fill="none" xmlns="http://www.w3.org/2000/svg">
<mask id="mask0_133_5" style="mask-type:luminance" maskUnits="userSpaceOnUse" x="0" y="0" width="37" height="37">
<path d="M0 0H37V37H0V0Z" fill="white"/>
<path fill-rule="evenodd" clip-rule="evenodd" d="M15.2979 10.3174C15.2979 9.4682 15.6352 8.65378 16.2357 8.0533C16.8362 7.45282 17.6506 7.11548 18.4998 7.11548C19.349 7.11548 20.1634 7.45282 20.7639 8.0533C21.3644 8.65378 21.7017 9.4682 21.7017 10.3174V15.2982C21.7017 16.1474 21.3644 16.9618 20.7639 17.5623C20.1634 18.1627 19.349 18.5001 18.4998 18.5001C17.6506 18.5001 16.8362 18.1627 16.2357 17.5623C15.6352 16.9618 15.2979 16.1474 15.2979 15.2982V10.3174Z" fill="black"/>
<path d="M18.4999 28.4616C14.9707 28.4616 12.8076 28.1528 12.8076 27.0386C12.8076 25.9243 14.9707 25.6155 18.4999 25.6155C22.0292 25.6155 24.1922 25.9243 24.1922 27.0386C24.1922 28.1528 22.0292 28.4616 18.4999 28.4616Z" fill="black"/>
<path d="M17.7891 22.0579H19.2121V27.0386H17.7891V22.0579Z" fill="black"/>
<path d="M24.1925 14.9425C24.1925 14.7538 24.2674 14.5728 24.4009 14.4394C24.5343 14.3059 24.7153 14.231 24.904 14.231C25.0927 14.231 25.2737 14.3059 25.4071 14.4394C25.5406 14.5728 25.6155 14.7538 25.6155 14.9425V17.2906C25.6155 20.7358 22.4079 23.481 18.5001 23.481C14.5924 23.481 11.3848 20.7358 11.3848 17.2906V14.9425C11.3848 14.7538 11.4597 14.5728 11.5932 14.4394C11.7266 14.3059 11.9076 14.231 12.0963 14.231C12.285 14.231 12.466 14.3059 12.5994 14.4394C12.7329 14.5728 12.8078 14.7538 12.8078 14.9425V17.2906C12.8078 19.8962 15.3338 22.0579 18.5001 22.0579C21.6665 22.0579 24.1925 19.8962 24.1925 17.2906V14.9425Z" fill="black"/>
</mask>
<g mask="url(#mask0_133_5)">
<path d="M18.5 37C28.7173 37 37 28.7173 37 18.5C37 8.28273 28.7173 0 18.5 0C8.28273 0 0 8.28273 0 18.5C0 28.7173 8.28273 37 18.5 37Z" fill="#2C9765"/>
</g>
</svg>
